# xmcd CD database file
#
# Track frame offsets:
#	150
#	33533
#	65523
#	100256
#	119912
#	148151
#	205666
#
# Disc length: 3105 seconds
#
# Revision: 1
# Processed by: cddbd v1.4PL0 Copyright (c) Steve Scherf et al.
# Submitted via: CDex 1.50Beta7
#
DISCID=6c0c1f07
DTITLE=Peter Nordahl Trio - The Look of Love
DYEAR=2002
DGENRE=Jazz
TTITLE0=The Look of Love
TTITLE1=Lush Life
TTITLE2=Autumn Leaves
TTITLE3=At the Movies
TTITLE4=Ore Polska
TTITLE5=Lullaby
TTITLE6=Hymn to Freedom
EXTD=YEAR: 2002
EXTT0=
EXTT1=
EXTT2=
EXTT3=
EXTT4=
EXTT5=
EXTT6=
PLAYORDER=
